<svg xmlns="http://www.w3.org/2000/svg" version="1.1" xmlns:xlink="http://www.w3.org/1999/xlink" xmlns:svgjs="http://svgjs.dev/svgjs" width="1500" height="1500" viewBox="0 0 1500 1500"><rect width="1500" height="1500" fill="#ffffff"></rect><g transform="matrix(0.6666666666666666,0,0,0.6666666666666666,249.39393939393938,438.5856950067477)"><svg viewBox="0 0 396 247" data-background-color="#ffffff" preserveAspectRatio="xMidYMid meet" height="935" width="1500" xmlns="http://www.w3.org/2000/svg" xmlns:xlink="http://www.w3.org/1999/xlink"><g id="tight-bounds" transform="matrix(1,0,0,1,0.2400000000000091,-0.09999999999999432)"><svg viewBox="0 0 395.52 247.2" height="247.2" width="395.52"><g><svg></svg></g><g><svg viewBox="0 0 395.52 247.2" height="247.2" width="395.52"><g transform="matrix(1,0,0,1,139.8610191780822,47.215199999999996)"><svg viewBox="0 0 115.79796164383562 152.7696" height="152.7696" width="115.79796164383562"><g><svg viewBox="0 0 115.79796164383562 152.7696" height="152.7696" width="115.79796164383562"><g><svg viewBox="0 0 115.79796164383562 152.7696" height="152.7696" width="115.79796164383562"><g><svg viewBox="0 0 115.79796164383562 152.7696" height="152.7696" width="115.79796164383562"><g id="textblocktransform"><svg viewBox="0 0 115.79796164383562 152.7696" height="152.7696" width="115.79796164383562" id="textblock"><g><svg viewBox="0 0 115.79796164383562 152.7696" height="152.7696" width="115.79796164383562"><g transform="matrix(1,0,0,1,0,0)"><svg width="115.79796164383562" viewBox="3.42 -32.08 24.310000000000002 32.08" height="152.7696" data-palette-color="#ee3e38"><path d="M27.73-32.08L27.73 0 23.27 0 23.27-14.55 7.89-14.55 7.89 0 3.42 0 3.42-32.08 7.89-32.08 7.89-17.8 23.27-17.8 23.27-32.08 27.73-32.08Z" opacity="1" transform="matrix(1,0,0,1,0,0)" fill="#ee3e38" class="wordmark-text-0" data-fill-palette-color="primary" id="text-0"></path></svg></g></svg></g></svg></g></svg></g></svg></g></svg></g></svg></g><g><path d="M181.499 0c30.402 0 58.24 10.976 79.768 29.183l-11.147 0c-19.26-14.022-42.974-22.294-68.621-22.295-25.647 0-49.361 8.272-68.621 22.295l-11.147 0c21.528-18.206 49.366-29.183 79.768-29.183zM181.499 247.2c-30.402 0-58.24-10.976-79.768-29.183h11.147c19.26 14.022 42.974 22.294 68.621 22.295 25.647 0 49.361-8.272 68.621-22.295l11.147 0c-21.528 18.206-49.366 29.183-79.768 29.183z" fill="#ee3e38" stroke="transparent" data-fill-palette-color="tertiary"></path></g></svg></g><defs></defs></svg><rect width="395.52" height="247.2" fill="none" stroke="none" visibility="hidden"></rect></g></svg></g></svg>